<?xml version="1.0" encoding="utf-8"?>
<!--
  Font Details:
  - Bio Sans Semibold + Bio Sans Regular
  - Kerning -24
 -->
<svg version="1.1"
  xmlns="http://www.w3.org/2000/svg"
  xmlns:xlink="http://www.w3.org/1999/xlink" x="0px" y="0px" viewBox="0 0 1610.12 344.7" xml:space="preserve">
  <style type="text/css">
	.st0{fill:#6D6D6D;}
	.st1{fill:#808080;}
  </style>
  <path class="st0" d="M131.93,93.38v52.96h-12.54c-37.16,0-56.68,16.26-63.64,56.21v136.58H0V98.02h47.38l2.32,44.13
	c10.68-33.45,31.12-48.78,65.04-48.78H131.93z"/>
  <path class="st1" d="M329.37,258.29H202.08l-28.8,80.83h-43.2l115.21-315.9h42.27l115.21,315.9h-44.6L329.37,258.29z M215.55,220.2
	h100.34L265.72,76.65L215.55,220.2z"/>
  <path class="st1" d="M634.58,0v339.12h-34.84l-1.39-38.09c-20.44,30.2-45.99,43.67-80.83,43.67c-55.75,0-88.27-34.38-88.27-99.88
	v-51.1c0-65.5,32.52-99.88,88.27-99.88c32.05,0,56.68,11.61,76.19,37.16V0H634.58z M593.69,254.58v-70.61
	c-15.79-34.38-40.42-54.35-71.08-54.35c-32.98,0-52.49,22.76-52.49,65.5v48.31c0,42.74,19.51,65.5,52.49,65.5
	C553.28,308.93,577.9,288.95,593.69,254.58z"/>
  <path class="st1" d="M879.39,99.41L795.3,339.12h-44.13L667.09,99.41h43.67l63.18,188.61l63.18-188.61H879.39z"/>
  <path class="st1" d="M910.04,10.69h44.6v45.53h-44.6V10.69z M911.9,99.41h40.88v239.71H911.9V99.41z"/>
  <path class="st1" d="M997.84,268.51h39.02c0,27.41,19.51,41.35,59.46,41.35c37.16,0,55.75-12.54,55.75-35.31
	c0-23.69-16.26-33.91-62.71-39.49c-62.71-7.43-85.94-26.02-85.94-68.75c0-46.46,32.98-72.47,92.45-72.47s91.05,25.55,91.05,73.86
	h-39.95c0-25.55-17.19-39.02-51.57-39.02c-33.45,0-52.03,12.54-52.03,34.38s16.26,30.66,60.39,35.31
	c64.11,6.97,88.27,27.41,88.27,72.93c0,48.31-32.52,73.4-95.7,73.4C1030.36,344.7,997.84,319.15,997.84,268.51z"/>
  <path class="st1" d="M1227.33,238.78v-39.02c0-69.68,35.77-105.92,103.6-105.92s103.6,36.23,103.6,105.92v39.02
	c0,69.68-35.77,105.92-103.6,105.92S1227.33,308.46,1227.33,238.78z M1393.64,237.39v-36.7c0-48.31-20.44-71.08-62.71-71.08
	s-62.71,22.76-62.71,71.08v36.7c0,48.31,20.44,71.54,62.71,71.54S1393.64,285.7,1393.64,237.39z"/>
  <path class="st1" d="M1610.12,94.77v40.42h-12.08c-39.02,0-60.86,19.98-68.75,65.97v137.97h-40.88V99.41h34.84l1.86,44.6
	c12.08-33.91,33.91-49.24,68.75-49.24H1610.12z"/>
</svg>
